<svg xmlns="http://www.w3.org/2000/svg" version="1.1" xmlns:xlink="http://www.w3.org/1999/xlink" xmlns:svgjs="http://svgjs.dev/svgjs" width="2000" height="540" viewBox="0 0 2000 540"><g transform="matrix(1,0,0,1,-1.2121212121212466,-0.9062395230714628)"><svg viewBox="0 0 396 107" data-background-color="#211f23" preserveAspectRatio="xMidYMid meet" height="540" width="2000" xmlns="http://www.w3.org/2000/svg" xmlns:xlink="http://www.w3.org/1999/xlink"><g id="tight-bounds" transform="matrix(1,0,0,1,0.2400000000000091,0.17956968327527534)"><svg viewBox="0 0 395.52 106.64086063344946" height="106.64086063344946" width="395.52"><g><svg viewBox="0 0 586.8729494750214 158.23380970496356" height="106.64086063344946" width="395.52"><g transform="matrix(1,0,0,1,191.35294947502143,21.868782672683103)"><svg viewBox="0 0 395.52 114.49624435959736" height="114.49624435959736" width="395.52"><g id="textblocktransform"><svg viewBox="0 0 395.52 114.49624435959736" height="114.49624435959736" width="395.52" id="textblock"><g><svg viewBox="0 0 395.52 114.49624435959736" height="114.49624435959736" width="395.52"><g transform="matrix(1,0,0,1,0,0)"><svg width="395.52" viewBox="2.5 -32.5 144.04 41.699999999999996" height="114.49624435959736" data-palette-color="#a4c2b2"><path d="M28.2-5.05L22.3 0.65 11-11.9 11 0 2.5 0 2.5-31.8 11-31.8 11-19.15 21.75-32.1 27.9-26.95 17.85-15.45 28.2-5.05ZM43.35 0.3L43.35 0.3Q39.35 0.3 36.27-1.3 33.2-2.9 31.45-5.95 29.7-9 29.7-13.3L29.7-13.3Q29.7-19.35 33.07-22.63 36.45-25.9 42.15-25.9L42.15-25.9Q46.15-25.9 48.67-24.38 51.2-22.85 52.4-20.3 53.6-17.75 53.6-14.65L53.6-14.65Q53.6-13.55 53.47-12.38 53.35-11.2 53.1-10.05L53.1-10.05 37.55-10.05Q37.8-7.5 39.67-6.6 41.55-5.7 44-5.7L44-5.7Q46.05-5.7 47.75-6.18 49.45-6.65 50.5-7.45L50.5-7.45 52.65-2.45Q51.4-1.4 48.92-0.55 46.45 0.3 43.35 0.3ZM37.55-15.1L37.55-15.1 46.6-15.1Q46.6-17.1 45.47-18.48 44.35-19.85 42.1-19.85L42.1-19.85Q39.95-19.85 38.75-18.55 37.55-17.25 37.55-15.1ZM66.09 9.2L58.1 9.2 58.1-22.2Q59.25-23.35 61.37-24.18 63.5-25 66-25.45 68.5-25.9 70.75-25.9L70.75-25.9Q77.3-25.9 80.5-22.33 83.7-18.75 83.7-12.85L83.7-12.85Q83.7-8.4 82.02-5.48 80.34-2.55 77.52-1.13 74.7 0.3 71.3 0.3L71.3 0.3Q68.3 0.3 66.09-0.65L66.09-0.65 66.09 9.2ZM70.55-6.55L70.55-6.55Q72.8-6.55 74.09-8.15 75.4-9.75 75.4-12.65L75.4-12.65Q75.4-16 73.77-17.68 72.15-19.35 69.8-19.35L69.8-19.35Q67.84-19.35 66.09-18.55L66.09-18.55 66.09-10.9Q66.09-8.55 67.5-7.55 68.9-6.55 70.55-6.55ZM96.19 0L88.19 0 88.19-32.5 96.19-32.5 96.19 0ZM114.34 0.3L114.34 0.3Q110.34 0.3 107.27-1.3 104.19-2.9 102.44-5.95 100.69-9 100.69-13.3L100.69-13.3Q100.69-19.35 104.07-22.63 107.44-25.9 113.14-25.9L113.14-25.9Q117.14-25.9 119.67-24.38 122.19-22.85 123.39-20.3 124.59-17.75 124.59-14.65L124.59-14.65Q124.59-13.55 124.47-12.38 124.34-11.2 124.09-10.05L124.09-10.05 108.54-10.05Q108.79-7.5 110.67-6.6 112.54-5.7 114.99-5.7L114.99-5.7Q117.04-5.7 118.74-6.18 120.44-6.65 121.49-7.45L121.49-7.45 123.64-2.45Q122.39-1.4 119.92-0.55 117.44 0.3 114.34 0.3ZM108.54-15.1L108.54-15.1 117.59-15.1Q117.59-17.1 116.47-18.48 115.34-19.85 113.09-19.85L113.09-19.85Q110.94-19.85 109.74-18.55 108.54-17.25 108.54-15.1ZM137.59 0L129.09 0 129.09-21.2Q130.84-23.2 133.41-24.55 135.99-25.9 139.34-25.9L139.34-25.9Q143.44-25.9 146.54-23.8L146.54-23.8 144.44-18.05Q143.69-18.55 142.66-18.8 141.64-19.05 140.79-19.05L140.79-19.05Q139.74-19.05 138.86-18.78 137.99-18.5 137.59-18.15L137.59-18.15 137.59 0Z" opacity="1" transform="matrix(1,0,0,1,0,0)" fill="#a4c2b2" class="wordmark-text-0" data-fill-palette-color="primary" id="text-0"></path></svg></g></svg></g></svg></g></svg></g><g><svg viewBox="0 0 164.32313409158513 158.23380970496356" height="158.23380970496356" width="164.32313409158513"><g><svg xmlns="http://www.w3.org/2000/svg" xml:space="preserve" viewBox="2.5145540525632297 3.0155540525632265 26.98544594743677 25.985445947436773" x="0" y="0" height="158.23380970496356" width="164.32313409158513" class="icon-icon-0" data-fill-palette-color="accent" id="icon-0"><path d="M15.5 18.5c-1.378 0-2.5-1.121-2.5-2.5s1.122-2.5 2.5-2.5S18 14.622 18 16s-1.122 2.5-2.5 2.5m0-3a0.5 0.5 0 1 0 0 1.001 0.5 0.5 0 0 0 0-1M26 28c-1.93 0-3.5-1.57-3.5-3.5S24.07 21 26 21s3.5 1.57 3.5 3.5S27.93 28 26 28m0-5c-0.827 0-1.5 0.673-1.5 1.5S25.173 26 26 26s1.5-0.672 1.5-1.5S26.827 23 26 23" fill="#a4c2b2" data-fill-palette-color="accent"></path><path d="M13 21.33a1 1 0 0 1-0.994-1.107 3.22 3.22 0 0 0-1.91-3.307 1 1 0 0 1 0-1.83 3.22 3.22 0 0 0 1.91-3.308 1 1 0 0 1 1.585-0.915 3.28 3.28 0 0 0 3.818 0 1.002 1.002 0 0 1 1.585 0.915 3.22 3.22 0 0 0 1.91 3.307 1 1 0 0 1 0 1.83 3.22 3.22 0 0 0-1.91 3.308 1 1 0 0 1-1.585 0.915c-1.116-0.818-2.703-0.817-3.818 0a1 1 0 0 1-0.591 0.193m2.5-2.817c0.547 0 1.083 0.084 1.592 0.246A5.2 5.2 0 0 1 18.685 16a5.2 5.2 0 0 1-1.593-2.759 5.3 5.3 0 0 1-3.184 0 5.2 5.2 0 0 1-1.593 2.76 5.2 5.2 0 0 1 1.593 2.758 5.2 5.2 0 0 1 1.592-0.246" fill="#a4c2b2" data-fill-palette-color="accent"></path><path d="M18.867 29.001c-3.841 0-8.016-1.836-11.274-5.094-5.683-5.683-6.76-13.853-2.4-18.213s12.53-3.283 18.213 2.4c4.112 4.11 5.96 9.684 4.708 14.2a1 1 0 0 1-1.928-0.534c1.063-3.833-0.583-8.642-4.194-12.252-4.903-4.903-11.803-5.98-15.385-2.4-3.58 3.58-2.503 10.482 2.4 15.385 3.61 3.61 8.417 5.258 12.254 4.195a1.005 1.005 0 0 1 1.23 0.696 1 1 0 0 1-0.697 1.231c-0.938 0.26-1.921 0.386-2.927 0.386" fill="#a4c2b2" data-fill-palette-color="accent"></path></svg></g></svg></g></svg></g><defs></defs></svg><rect width="395.52" height="106.64086063344946" fill="none" stroke="none" visibility="hidden"></rect></g></svg></g></svg>